<svg width="20" height="18" viewBox="0 0 20 18" fill="none" xmlns="http://www.w3.org/2000/svg">
<path d="M17.2721 10.4014C15.8075 12.1591 13.7026 14.0347 11.1175 16.3367L10 17.3308L8.88251 16.3367C6.29736 14.0347 4.19246 12.1591 2.72787 10.4014C1.26859 8.65017 0.5 7.07911 0.5 5.3951C0.5 2.65411 2.68202 0.5 5.5 0.5C7.09228 0.5 8.6259 1.22958 9.62306 2.37374L10 2.80624L10.3769 2.37374C11.3741 1.22958 12.9077 0.5 14.5 0.5C17.318 0.5 19.5 2.65411 19.5 5.3951C19.5 7.07911 18.7314 8.65017 17.2721 10.4014Z" stroke="white"/>
</svg>
