<svg width="20" height="20" viewBox="0 0 20 20" fill="none" xmlns="http://www.w3.org/2000/svg">
<path d="M6.31667 3.39967L5.125 2.20801C3.12917 3.72884 1.8125 6.07884 1.6875 8.74967H3.35417C3.48333 6.54134 4.62083 4.60801 6.31667 3.39967ZM16.6458 8.74967H18.3125C18.1875 6.07884 16.8708 3.72884 14.875 2.20801L13.6875 3.39551C15.3792 4.60801 16.5167 6.54134 16.6458 8.74967ZM15 9.16634C15 6.60384 13.6375 4.46634 11.25 3.89967V3.33301C11.25 2.64134 10.6917 2.08301 10 2.08301C9.30833 2.08301 8.75 2.64134 8.75 3.33301V3.89967C6.3625 4.46634 5 6.60384 5 9.16634V13.333L3.33333 14.9997V15.833H16.6667V14.9997L15 13.333V9.16634ZM10 18.333C10.1167 18.333 10.2292 18.3205 10.3375 18.2997C10.8792 18.1872 11.325 17.8122 11.5375 17.3163C11.6208 17.1163 11.6667 16.8997 11.6667 16.6663H8.33333C8.33333 17.5872 9.07917 18.333 10 18.333Z" fill="#666666"/>
</svg>
