<svg width="20" height="20" viewBox="0 0 20 20" fill="none" xmlns="http://www.w3.org/2000/svg">
<path d="M10.0001 2.6459C8.14059 2.6459 6.63316 4.15333 6.63316 6.01284V6.19005H4.32947C4.03587 6.19005 3.79785 6.42806 3.79785 6.72167C3.79785 7.01527 4.03587 7.25329 4.32947 7.25329H15.6707C15.9643 7.25329 16.2023 7.01527 16.2023 6.72167C16.2023 6.42806 15.9643 6.19005 15.6707 6.19005H13.367V6.01284C13.367 4.15333 11.8596 2.6459 10.0001 2.6459Z" fill="#999999"/>
<path d="M14.6197 10.8183L14.4337 12.1545C14.2316 13.6067 14.1306 14.3328 13.9163 14.916C13.5157 16.0065 12.8231 16.8187 11.9964 17.1675C11.5544 17.3541 11.0363 17.3541 10.0001 17.3541C8.96394 17.3541 8.44584 17.3541 8.00379 17.1675C7.17714 16.8187 6.48455 16.0065 6.08388 14.916C5.86962 14.3328 5.76857 13.6067 5.56648 12.1545L5.38052 10.8183C5.32329 10.4071 5.27102 10.0315 5.22452 9.68665C5.12898 8.97817 5.08121 8.62393 5.29303 8.38163C5.50485 8.13932 5.86891 8.13932 6.59704 8.13932H13.4032C14.1313 8.13932 14.4953 8.13932 14.7072 8.38163C14.919 8.62393 14.8712 8.97817 14.7757 9.68665C14.7292 10.0314 14.6769 10.4072 14.6197 10.8183Z" fill="#999999"/>
</svg>
