<svg width="16" height="16" viewBox="0 0 16 16" fill="none" xmlns="http://www.w3.org/2000/svg">
<g clip-path="url(#clip0_665_13062)">
<path d="M11.0001 4.00002V11.6667C11.0001 13.14 9.80675 14.3334 8.33341 14.3334C6.86008 14.3334 5.66675 13.14 5.66675 11.6667V3.33335C5.66675 2.41335 6.41341 1.66669 7.33341 1.66669C8.25341 1.66669 9.00008 2.41335 9.00008 3.33335V10.3334C9.00008 10.7 8.70341 11 8.33341 11C7.96341 11 7.66675 10.7 7.66675 10.3334V4.00002H6.66675V10.3334C6.66675 11.2534 7.41341 12 8.33341 12C9.25341 12 10.0001 11.2534 10.0001 10.3334V3.33335C10.0001 1.86002 8.80675 0.666687 7.33341 0.666687C5.86008 0.666687 4.66675 1.86002 4.66675 3.33335V11.6667C4.66675 13.6934 6.31008 15.3334 8.33341 15.3334C10.3567 15.3334 12.0001 13.6934 12.0001 11.6667V4.00002H11.0001Z" fill="#999999"/>
</g>
<defs>
<clipPath id="clip0_665_13062">
<rect width="16" height="16" fill="white"/>
</clipPath>
</defs>
</svg>
