<svg width="20" height="20" viewBox="0 0 20 20" fill="none" xmlns="http://www.w3.org/2000/svg">
<path d="M12.9419 4.41163L13.0097 4.45076C13.5953 4.78885 14.0837 5.07077 14.4413 5.34672C14.8187 5.63797 15.1182 5.97228 15.2437 6.44055C15.3692 6.90882 15.2769 7.34812 15.0957 7.78907C14.9699 8.09513 14.7849 8.43907 14.562 8.83139L14.0839 8.54719L14.0777 8.54358L8.86562 5.53437L8.37819 5.24709C8.60404 4.86243 8.80754 4.53389 9.00788 4.27428C9.29914 3.89685 9.63345 3.59729 10.1017 3.47182C10.57 3.34634 11.0093 3.43862 11.4502 3.61985C11.868 3.79155 12.3563 4.07351 12.9419 4.41163Z" fill="#999999"/>
<path d="M7.81265 6.22418L5.19507 10.7579C4.97095 11.1453 4.79374 11.4517 4.72809 11.8002C4.66243 12.1486 4.71601 12.4985 4.78377 12.9409L4.80202 13.0605C4.9271 13.8819 5.03019 14.5589 5.18568 15.0723C5.3483 15.6093 5.59829 16.074 6.08995 16.3579C6.58161 16.6417 7.1091 16.6258 7.65541 16.4982C8.17778 16.3762 8.81565 16.1269 9.58951 15.8246L9.70221 15.7806C10.1193 15.618 10.449 15.4895 10.718 15.2584C10.9869 15.0273 11.1636 14.7207 11.3871 14.3329L13.9985 9.80972L13.5102 9.51947L8.29458 6.50825L7.81265 6.22418Z" fill="#999999"/>
</svg>
