<svg width="20" height="20" viewBox="0 0 20 20" fill="none" xmlns="http://www.w3.org/2000/svg">
<path fill-rule="evenodd" clip-rule="evenodd" d="M16.2271 5.77334C16.586 6.4398 16.586 7.31225 16.586 9.05714V9.79505C16.586 10.8476 16.586 11.3738 16.453 11.8031C16.1374 12.8214 15.2957 13.6176 14.2194 13.9162C13.7656 14.0421 13.2094 14.0421 12.0968 14.0421H11.7353L11.6925 14.0421C11.0205 14.0462 10.3659 14.2447 9.8166 14.6109L9.78167 14.6344L8.06212 15.7964C7.47265 16.1947 6.69803 15.6195 6.96707 14.9831C7.15765 14.5324 6.80676 14.0421 6.29361 14.0421H5.89727C4.52529 14.0421 3.41309 12.9899 3.41309 11.6919V9.05714C3.41309 7.31225 3.41309 6.4398 3.77203 5.77334C4.08776 5.18711 4.59156 4.71048 5.21122 4.41178C5.91568 4.0722 6.83787 4.0722 8.68225 4.0722H11.3168C13.1612 4.0722 14.0834 4.0722 14.7879 4.41178C15.4075 4.71048 15.9113 5.18711 16.2271 5.77334Z" fill="#999999"/>
</svg>
