<svg width="16" height="16" viewBox="0 0 16 16" fill="none" xmlns="http://www.w3.org/2000/svg">
<g clip-path="url(#clip0_665_13067)">
<path d="M0.666748 14H3.33341V5.99996H0.666748V14ZM15.3334 6.66663C15.3334 5.92996 14.7367 5.33329 14.0001 5.33329H9.79008L10.4267 2.28663C10.4401 2.21996 10.4501 2.14996 10.4501 2.07663C10.4501 1.79996 10.3367 1.54996 10.1567 1.36996L9.44675 0.666626L5.05675 5.05663C4.81675 5.29996 4.66675 5.63329 4.66675 5.99996V12.6666C4.66675 13.4033 5.26341 14 6.00008 14H12.0001C12.5534 14 13.0267 13.6633 13.2267 13.1866L15.2367 8.48663C15.2967 8.33329 15.3334 8.16996 15.3334 7.99996V6.72329L15.3267 6.71663L15.3334 6.66663Z" fill="#3F49F3"/>
</g>
<defs>
<clipPath id="clip0_665_13067">
<rect width="16" height="16" fill="white"/>
</clipPath>
</defs>
</svg>
